<svg version="1.1" xmlns="http://www.w3.org/2000/svg" xmlns:xlink="http://www.w3.org/1999/xlink" x="0px" y="0px"
	 viewBox="0 0 341.52 72.79" style="enable-background:new 0 0 341.52 72.79;" xml:space="preserve">
	<path d="M3.66,38.25c0-18.17,13.23-32.03,32.47-32.03c16.76,0,28.06,10.5,30.7,24.09H51.65c-1.68-6.09-7.59-10.68-15.53-10.68
		c-10.68,0-18,8.03-18,18.62c0,10.76,7.32,18.62,18,18.62c7.94,0,13.76-4.5,16.06-10.41h15.26C64.8,60.04,52.71,70.27,36.12,70.27
		C16.8,70.27,3.66,56.51,3.66,38.25z"/>
	<path class="h" d="M76.71,2.96h13.59v24.7H91c1.85-3.18,6-6.26,12.26-6.26c10.32,0,16.59,6.97,16.59,16.67v31.06h-13.67V42.31
		c0-4.76-3-8.21-7.68-8.21c-4.76,0-8.12,3.88-8.12,8.73v26.29H76.71V2.96z"/>
	<path d="M130,22.54h12.88v5.12h0.71c1.85-3.18,6.26-6.26,12.53-6.26c10.32,0,16.67,6.97,16.67,16.67v31.06h-13.67V42.31
		c0-4.76-2.82-8.21-7.5-8.21c-4.76,0-7.94,3.97-7.94,8.91v26.12H130V22.54z"/>
	<path d="M180.28,45.83c0-13.76,10.06-24.44,25.14-24.44c14.91,0,25.06,10.68,25.06,24.44c0,13.76-10.15,24.44-25.14,24.44
		C190.43,70.27,180.28,59.6,180.28,45.83z M216.63,45.83c0-7.06-4.76-12.09-11.29-12.09c-6.44,0-11.21,5.03-11.21,12.09
		c0,7.15,4.76,12.09,11.21,12.09C211.87,57.92,216.63,52.89,216.63,45.83z"/>
	<path class="b" d="M253.69,63.83h-0.71v5.29h-13.5V2.96h13.67v24.88h0.71c1.59-2.47,5.73-6.44,13.15-6.44c12.53,0,21.09,10.06,21.09,24.7
		c0,14.65-8.73,24.17-21.44,24.17C258.89,70.27,255.01,65.95,253.69,63.83z M274.25,45.83c0-7.15-4.32-12.09-10.67-12.09
		c-6.26,0-10.68,4.68-10.68,12.09c0,6.88,4.15,12.09,10.68,12.09C269.92,57.92,274.25,53.07,274.25,45.83z"/>
	<path class="l" d="M296.3,54.48V2.96h13.67v49.94c0,2.82,1.41,4.23,3.88,4.23h1.68v12h-4.68C301.51,69.13,296.3,63.57,296.3,54.48z"/>
	<g>
		<path class="i-dot" d="M321.8,9.93c0-4.59,3.35-7.41,8.03-7.41s8.03,2.82,8.03,7.41c0,4.59-3.35,7.41-8.03,7.41S321.8,14.51,321.8,9.93z"/>
		<path d="M323.04,22.54h13.67v46.58h-13.67V22.54z"/>
	</g>
</svg>
